<svg xmlns="http://www.w3.org/2000/svg" width="201.028" height="263.714" viewBox="0 0 201.028 263.714">
  <g id="OHJXQR1_Converted_copy" data-name="OHJXQR1 [Converted] copy" transform="translate(-537.04 -359.99)">
    <g id="Group_76" data-name="Group 76" transform="translate(537.04 359.99)">
      <path id="Path_377" data-name="Path 377" d="M681.643,640.755a72.291,72.291,0,0,1-28.156-53.9L653.438,468.4l-.016-.363a44.1,44.1,0,0,0-88.155,2.082v87.518h31.008V470.113a13.083,13.083,0,0,1,22.333-9.268,13.416,13.416,0,0,1,2.714,3.923c1.06,2.379.791,1.242,1.071,4.011l.038.357q.008,58.362.011,116.724H537.06V470.141a72.3,72.3,0,0,1,144.529-3.428l.049,1.005v.335c.005,34.26.005,138.425.005,172.7" transform="translate(-537.049 -377.041)" fill="#47a5ae"/>
      <path id="Path_378" data-name="Path 378" d="M596.259,498.257V470.1a13.083,13.083,0,0,1,22.333-9.268,13.417,13.417,0,0,1,2.714,3.923c1.06,2.379.791,1.242,1.071,4.011l.038.357q.008,58.362.011,116.724h0l-.005-88.474-.038-.357c-.28-2.769-.011-1.632-1.071-4.011a13.523,13.523,0,0,0-2.714-3.923,13,13,0,0,0-9.252-3.818,13.083,13.083,0,0,0-13.087,13m16.086-72.163c-.994-.066-1.989-.1-2.989-.1s-1.994.033-2.994.1a72.281,72.281,0,0,0-69.322,71.8V470.1a72.3,72.3,0,0,1,144.529-3.428l.049,1.005v28.244l-.049-1.005a72.272,72.272,0,0,0-69.223-68.822Zm-47.094,131.53h31.008v28.2H565.251Z" transform="translate(-537.04 -377.023)" fill="#56c5d0"/>
      <path id="Path_379" data-name="Path 379" d="M832.15,623.7a72.3,72.3,0,0,1-27.728-48.742V449.947l-.082-1.692a101.052,101.052,0,0,0-58.51-86.892A72.306,72.306,0,0,1,832.1,428.873l.049,1.011v.335c0,34.282,0,159.208,0,193.485" transform="translate(-631.122 -359.99)" fill="#4790b1"/>
    </g>
  </g>
</svg>
